<svg width="21" height="18" fill="none" xmlns="http://www.w3.org/2000/svg"><path fill-rule="evenodd" clip-rule="evenodd" d="M20.42.333a8.333 8.333 0 01-2.737 1.1A4.198 4.198 0 0014.539 0c-2.378 0-4.307 2.035-4.307 4.544 0 .356.037.702.11 1.035-3.58-.19-6.754-1.997-8.88-4.75a4.73 4.73 0 00-.583 2.288c0 1.575.76 2.966 1.917 3.781a4.142 4.142 0 01-1.953-.566v.055c0 2.203 1.485 4.04 3.458 4.456a4.082 4.082 0 01-1.946.08c.548 1.804 2.138 3.118 4.024 3.154A8.363 8.363 0 010 15.96 11.756 11.756 0 006.605 18c7.925 0 12.258-6.923 12.258-12.928 0-.198-.004-.395-.011-.59A8.991 8.991 0 0021 2.132a8.258 8.258 0 01-2.474.715A4.52 4.52 0 0020.421.333z" fill="#8DD83D"/></svg>