<svg width="63" height="64" fill="none" xmlns="http://www.w3.org/2000/svg"><path fill-rule="evenodd" clip-rule="evenodd" d="M14.033 5.43a.672.672 0 00-.05.044l-.036.033c.179-.192.436-.398.605-.51C19.483 1.74 25.182 0 31.504 0a30.963 30.963 0 0116.18 4.544c.343.207 1.278.858 1.76 1.45v.003c-4.561-5.11-17.97 5.852-17.97 5.852-4.637-3.631-8.903-6.106-12.079-6.987-2.654-.738-4.49-.121-5.362.567zm40.384 4.622c-.08-.085-.16-.169-.237-.258-1.153-1.285-2.57-1.596-3.85-1.512-1.162.37-6.537 2.338-13.16 8.69 0 0 7.456 7.365 12.022 14.894 4.56 7.525 7.287 13.44 5.615 21.646-.047-.273-.8-4.412-4.9-10.265-.996-1.418-4.637-5.842-6.677-8.165-2.022-2.306-5.032-5.609-9.006-9.623-.87-.878-1.787-1.793-2.752-2.741 0 0-1.452 1.475-3.343 3.415v-.003c-2.419 2.483-5.555 5.72-7.296 7.611-3.1 3.36-11.981 13.913-12.48 19.83 0 0-1.977-4.693 2.36-15.517 2.833-7.076 11.393-17.701 14.968-21.164 0 0-3.267-3.65-7.366-6.173l-.024-.007s-.047-.038-.12-.085C16.2 9.431 14.048 8.511 11.976 8.39c-2.115.152-3.455 1.724-3.455 1.724C3.235 15.838 0 23.533 0 32c0 17.671 14.104 32 31.504 32 9.233 0 17.541-4.044 23.305-10.474v-.006C59.896 47.837 63 40.288 63 31.997c0-8.391-3.18-16.03-8.389-21.737a6.36 6.36 0 00-.194-.208zm.391 43.468l-.004.004.003-.012.001.008z" fill="#fff"/></svg>